/vscmnt/brussel_pixiu_data/_data_brussel/112/vsc11236/PredSimResults/SUBJ10mtu3D/worker8.mot
version=1
nRows=10
nColumns=50
inDegrees=yes
endheader
                time	         pelvis_tilt	         pelvis_list	     pelvis_rotation	           pelvis_tx	           pelvis_ty	           pelvis_tz	       hip_flexion_r	     hip_adduction_r	      hip_rotation_r	        knee_angle_r	       ankle_angle_r	         mtp_angle_r	       hip_flexion_l	     hip_adduction_l	      hip_rotation_l	        knee_angle_l	       ankle_angle_l	         mtp_angle_l	    lumbar_extension	      lumbar_bending	     lumbar_rotation	 ercspn_r/activation	 intobl_r/activation	 extobl_r/activation	    abd_r/activation	    add_r/activation	hamstrings_r/activation	bifemsh_r/activation	glut_max_r/activation	iliopsoas_r/activation	rect_fem_r/activation	  vasti_r/activation	gastroc_r/activation	 soleus_r/activation	tib_ant_r/activation	 ercspn_l/activation	 intobl_l/activation	 extobl_l/activation	    abd_l/activation	    add_l/activation	hamstrings_l/activation	bifemsh_l/activation	glut_max_l/activation	iliopsoas_l/activation	rect_fem_l/activation	  vasti_l/activation	gastroc_l/activation	 soleus_l/activation	tib_ant_l/activation	
          1.12039757	         -4.58489697	         -1.13413559	          7.86957036	          1.35568106	          0.82184901	         -0.01277170	         31.21023484	         -1.76038803	         -6.51436128	         -6.09388528	          2.94559906	          0.26691071	        -16.38505721	         -1.14798621	         -0.08810707	         -4.97064521	          7.71554802	         26.71358357	         -6.46233469	         -0.65335831	         -6.59735848	          0.11980103	          0.18586777	          0.01000013	          0.01000009	          0.11617101	          0.12151849	          0.24419449	          0.02554974	          0.11754217	          0.01000032	          0.01000009	          0.01006773	          0.01000007	          0.28334949	          0.06184766	          0.01000001	          0.01000006	          0.05454854	          0.01000011	          0.01392837	          0.22479345	          0.01000010	          0.31959180	          0.01000045	          0.01000004	          0.30590654	          0.24832309	          0.02421461	
          1.13160155	         -4.63087625	         -1.09506630	          7.98327758	          1.37132118	          0.82040744	         -0.01264682	         31.19804676	         -1.67139591	         -6.34433590	         -7.76886822	          2.67078487	          0.26501706	        -16.53859358	         -1.25966036	         -0.37718594	         -6.53181805	          6.99529375	         28.36054055	         -6.27955632	         -0.22901011	         -6.87898369	          0.10095039	          0.15662143	          0.01000011	          0.01000000	          0.16164454	          0.10529876	          0.20982794	          0.06086733	          0.09904687	          0.01000011	          0.01000001	          0.01671339	          0.01186746	          0.30786025	          0.09905653	          0.01000002	          0.01000006	          0.04596530	          0.01000072	          0.01187597	          0.18942213	          0.01092923	          0.26930393	          0.01000021	          0.01000005	          0.27273603	          0.23897609	          0.02040443	
          1.14280552	         -4.66574252	         -1.06653130	          8.05404518	          1.38728638	          0.81915475	         -0.01244612	         31.01372468	         -1.59366201	         -6.11053087	         -9.33110535	          2.25727309	          0.25521461	        -16.58760764	         -1.38817715	         -0.69865167	         -8.32004083	          6.14913797	         29.94962210	         -6.07411241	          0.21646610	         -7.13410374	          0.08966891	          0.13197700	          0.01000007	          0.03281255	          0.13620979	          0.09180982	          0.17681155	          0.09601038	          0.08346180	          0.01000005	          0.01000001	          0.01408354	          0.01000012	          0.39877695	          0.11116449	          0.01000001	          0.01000006	          0.03873264	          0.01000022	          0.01009103	          0.15961649	          0.01000005	          0.22692887	          0.01000027	          0.01000005	          0.22982093	          0.22457052	          0.01719379	
          1.15400950	         -4.69105810	         -1.03667262	          8.07655808	          1.40336336	          0.81822059	         -0.01212110	         30.74364018	         -1.50946701	         -5.94740340	        -10.72646978	          1.71625076	          0.24223855	        -16.45605800	         -1.52226921	         -1.05429254	        -10.43763489	          5.17983344	         31.40057309	         -5.87228520	          0.66013500	         -7.35686434	          0.10643729	          0.11121037	          0.01000007	          0.08522127	          0.17625212	          0.07736386	          0.14899024	          0.11362010	          0.07032906	          0.01000006	          0.01000002	          0.01186750	          0.01000001	          0.45658202	          0.13891626	          0.01000001	          0.01000005	          0.03263805	          0.01000024	          0.01108159	          0.13450079	          0.01000018	          0.19122154	          0.01000040	          0.01000013	          0.19365851	          0.20790029	          0.01448834	
          1.16521348	         -4.70619702	         -1.00412977	          8.05615639	          1.41939886	          0.81771379	         -0.01168390	         30.47331047	         -1.41966910	         -5.84496866	        -12.14501633	          1.26253976	          0.22666767	        -16.08738972	         -1.66343108	         -1.44522337	        -12.95693496	          4.09454442	         32.58699989	         -5.68720822	          1.09923540	         -7.54602518	          0.11326500	          0.09371138	          0.01000008	          0.12252078	          0.22730824	          0.06738064	          0.12554660	          0.12807358	          0.05926275	          0.01000009	          0.01000016	          0.01000019	          0.01000005	          0.47644728	          0.17095594	          0.01000002	          0.01000004	          0.02750244	          0.02502674	          0.02031421	          0.11333705	          0.01000022	          0.16113277	          0.01000024	          0.01000022	          0.16318627	          0.18751430	          0.01220860	
          1.17641745	         -4.71100660	         -0.97029671	          7.99759147	          1.43529050	          0.81771639	         -0.01114943	         30.23932770	         -1.32581914	         -5.78247641	        -13.66071802	          1.01590412	          0.21048062	        -15.43860303	         -1.81695703	         -1.88218493	        -15.92737159	          2.90239656	         33.34189799	         -5.52360618	          1.53289407	         -7.70207395	          0.11326846	          0.07896586	          0.01000007	          0.14586343	          0.26133602	          0.06296385	          0.10579183	          0.13318703	          0.04993774	          0.01000008	          0.03966086	          0.01000007	          0.01000004	          0.47644548	          0.19596663	          0.01000002	          0.01000004	          0.02317492	          0.08880979	          0.01927322	          0.09550344	          0.01000003	          0.13577848	          0.01000012	          0.01000005	          0.13750884	          0.15800889	          0.01028758	
          1.18762143	         -4.70706531	         -0.93049329	          7.90155416	          1.45096187	          0.81831472	         -0.01054045	         29.99308573	         -1.22735214	         -5.73922317	        -15.17754082	          1.01728256	          0.19420712	        -14.47008113	         -1.98313036	         -2.38924378	        -19.39396585	          1.61628770	         33.45167564	         -5.38439302	          1.95469633	         -7.82386249	          0.11033845	          0.06654055	          0.01000007	          0.15645279	          0.28290022	          0.06226202	          0.08914548	          0.12712786	          0.04208002	          0.01000007	          0.06854015	          0.01000006	          0.01000003	          0.45399590	          0.20569099	          0.01000003	          0.01000004	          0.01952834	          0.15641492	          0.01909647	          0.08047596	          0.01000002	          0.11441369	          0.01000010	          0.01000003	          0.11587177	          0.13314613	          0.01000001	
          1.19882540	         -4.69641047	         -0.87995384	          7.76807588	          1.46637279	          0.81952506	         -0.00988264	         29.66343261	         -1.11981621	         -5.68717675	        -16.56506305	          1.28760743	          0.18700138	        -13.16427242	         -2.16776359	         -2.96850315	        -23.33899018	          0.12747621	         32.88947124	         -5.27024533	          2.35997799	         -7.90932468	          0.10170625	          0.05607037	          0.01000008	          0.15972458	          0.28701443	          0.06330054	          0.07511845	          0.11534028	          0.03545871	          0.01000006	          0.09351896	          0.01000006	          0.01000003	          0.40585462	          0.20542749	          0.01000003	          0.01000005	          0.01645555	          0.22131157	          0.02119268	          0.06781306	          0.01000001	          0.09641067	          0.01000008	          0.01000002	          0.09763930	          0.11219553	          0.01000001	
          1.21002938	         -4.68137439	         -0.81272741	          7.59645603	          1.48148613	          0.82130259	         -0.00919897	         29.19386098	         -1.00133144	         -5.59725042	        -17.70942889	          1.80342547	          0.21315799	        -11.53129032	         -2.37566373	         -3.60366501	        -27.67300332	         -1.70820016	         31.69110460	         -5.18421620	          2.74359560	         -7.95649734	          0.08570292	          0.04724768	          0.01000008	          0.15705901	          0.26213246	          0.06588780	          0.06329859	          0.09719158	          0.02987927	          0.01000005	          0.12278114	          0.01000004	          0.01000002	          0.34506637	          0.19887255	          0.01000003	          0.01000006	          0.01386626	          0.27309109	          0.03877822	          0.05714271	          0.01000001	          0.08124042	          0.01000007	          0.01000001	          0.08227572	          0.09454152	          0.01000000	
          1.22123335	         -4.66455746	         -0.72201978	          7.38645600	          1.49625264	          0.82358342	         -0.00850441	         28.55053347	         -0.87523061	         -5.45050662	        -18.52533289	          2.47087680	          0.29699708	         -9.60506127	         -2.60798903	         -4.25803208	        -32.25022093	         -4.01700306	         29.89935348	         -5.13315744	          3.09786956	         -7.96416167	          0.07221757	          0.03981324	          0.01000011	          0.15307927	          0.22088600	          0.07091697	          0.05333858	          0.08189849	          0.02517776	          0.01000006	          0.13022276	          0.01000011	          0.01000005	          0.29077031	          0.20182822	          0.02883215	          0.01000004	          0.01168440	          0.23012031	          0.04072437	          0.04815142	          0.01000004	          0.06845723	          0.01000005	          0.01000000	          0.06932960	          0.07966537	          0.01000009	
